<?xml version="1.0" encoding="utf-8"?>
<!-- Generator: Adobe Illustrator 24.1.0, SVG Export Plug-In . SVG Version: 6.00 Build 0)  -->
<svg version="1.1" id="Layer_1" xmlns="http://www.w3.org/2000/svg" xmlns:xlink="http://www.w3.org/1999/xlink" x="0px" y="0px"
	 viewBox="0 0 297.5 290.2" style="enable-background:new 0 0 297.5 290.2;" xml:space="preserve">
<style type="text/css">
	.st0{fill-rule:evenodd;clip-rule:evenodd;fill:#808080;}
</style>
<path class="st0" d="M148.8,0C66.6,0,0,66.6,0,148.8c0,65.7,42.6,121.5,101.7,141.2c7.4,1.4,10.2-3.2,10.2-7.2
	c0-3.5-0.1-12.9-0.2-25.3c-41.4,9-50.1-19.9-50.1-19.9c-6.8-17.2-16.5-21.8-16.5-21.8c-13.5-9.2,1-9,1-9C61,207.8,68.9,222,68.9,222
	c13.3,22.7,34.8,16.2,43.3,12.4c1.4-9.6,5.2-16.2,9.4-19.9c-33-3.8-67.8-16.5-67.8-73.5c0-16.2,5.8-29.5,15.3-39.9
	c-1.5-3.8-6.6-18.9,1.5-39.4c0,0,12.5-4,40.9,15.3c11.9-3.3,24.6-5,37.2-5c12.6,0.1,25.4,1.7,37.2,5c28.4-19.3,40.9-15.3,40.9-15.3
	c8.1,20.5,3,35.6,1.5,39.4c9.5,10.4,15.3,23.7,15.3,39.9c0,57.2-34.8,69.7-67.9,73.4c5.3,4.6,10.1,13.7,10.1,27.6
	c0,19.9-0.2,35.9-0.2,40.8c0,4,2.7,8.6,10.2,7.2c59.1-19.7,101.7-75.4,101.7-141.1C297.5,66.6,230.9,0,148.8,0z"/>
</svg>
