<?xml version="1.0" encoding="utf-8"?>
<!-- Generator: Adobe Illustrator 24.1.0, SVG Export Plug-In . SVG Version: 6.00 Build 0)  -->
<svg version="1.1" id="Layer_1" xmlns="http://www.w3.org/2000/svg" xmlns:xlink="http://www.w3.org/1999/xlink" x="0px" y="0px"
	 viewBox="0 0 295.1 294.7" style="enable-background:new 0 0 295.1 294.7;" xml:space="preserve">
<style type="text/css">
	.st0{fill:#040404;}
	.st1{fill:#20CE60;}
</style>
<path class="st0" d="M295.1,147.6c0,80.9-66.5,147.1-147.6,147.1C66.9,294.7-0.1,228,0,147.8C0.1,66.2,66.5-0.1,148.2,0
	C229.4,0.1,295.1,66.1,295.1,147.6z M125.9,79.3c-23.7-0.2-47.1,2.3-69.9,8.9c-7.7,2.2-11.7,9.5-9.7,16.6c2.1,7.5,9.4,11.7,17.2,9.4
	c25-7.4,50.6-9,76.5-7.7c28.2,1.3,55.7,6.4,81.7,18c4.7,2.1,9.1,4.8,13.7,7c6.7,3.3,16,1,19.1-4.5c3.6-6.3,1.1-14.6-5.9-18.9
	c-4.3-2.6-8.7-4.9-13.2-7C200.7,85.1,163.8,79.5,125.9,79.3z M124.2,129.3c-20.5,0.3-39.6,2.4-58.2,7.9c-7.7,2.2-11.3,8-9.3,14.9
	c1.8,5.9,8,9,15,6.9c22.3-6.7,45-8.5,68.1-6.6c27.3,2.3,53.3,9.2,77.1,23.3c6.6,3.9,13.4,2.3,17.1-3.9c3.3-5.6,1.2-11.5-5.4-15.3
	C196,137.4,160.4,130,124.2,129.3z M122.7,177.8c-16.5-0.2-34.7,2.3-52.8,6.2c-4.3,0.9-7.3,3.3-8.3,7.6c-0.8,3.8,1.1,6.8,3.9,9.1
	c2.9,2.5,6.2,1.8,9.5,1.1c24-5.4,48.2-7.6,72.7-4.7c19.4,2.3,37.5,8.3,54.3,18.4c5.2,3.1,8.8,2.9,12.3-0.3c4.6-4.3,3.7-11.2-2-14.7
	C185.3,184.1,155.9,177.5,122.7,177.8z"/>
<path class="st1" d="M125.9,79.3c37.9,0.2,74.8,5.8,109.5,21.8c4.5,2.1,8.9,4.4,13.2,7c7.1,4.2,9.6,12.5,5.9,18.9
	c-3.2,5.5-12.4,7.8-19.1,4.5c-4.6-2.2-9.1-4.9-13.7-7c-26-11.6-53.5-16.6-81.7-18c-25.8-1.2-51.5,0.3-76.5,7.7
	c-7.9,2.3-15.2-1.9-17.2-9.4c-2-7.1,2.1-14.4,9.7-16.6C78.8,81.6,102.2,79.1,125.9,79.3z"/>
<path class="st1" d="M124.2,129.3c36.2,0.7,71.8,8.1,104.4,27.1c6.7,3.9,8.7,9.8,5.4,15.3c-3.7,6.3-10.5,7.9-17.1,3.9
	c-23.8-14.1-49.8-21-77.1-23.3c-23-2-45.8-0.1-68.1,6.6c-7,2.1-13.3-1-15-6.9c-2.1-6.9,1.6-12.7,9.3-14.9
	C84.7,131.7,103.8,129.5,124.2,129.3z"/>
<path class="st1" d="M122.7,177.8c33.2-0.3,62.6,6.3,89.5,22.7c5.7,3.5,6.6,10.3,2,14.7c-3.4,3.3-7.1,3.4-12.3,0.3
	c-16.8-10.1-34.9-16.1-54.3-18.4c-24.5-2.9-48.7-0.7-72.7,4.7c-3.3,0.8-6.6,1.4-9.5-1.1c-2.8-2.4-4.7-5.3-3.9-9.1
	c1-4.3,4-6.6,8.3-7.6C87.9,180.1,106.1,177.6,122.7,177.8z"/>
</svg>
